<?xml version='1.0' encoding='utf-8'?>
<svg xmlns="http://www.w3.org/2000/svg" version="1.1" width="600px" height="976px" viewBox="0 0 600 976"> <g id="layer1"> <g style="fill:rgb(174,164,131); fill-opacity:1.0; stroke-linejoin: miter"> <path d="M363.32904,369.09467Q349.20633,372.38248,344.45654,383.68506Q340.61005,393.21185,349.3069,403.71204L316.26068,512.1482L309.42175,515.9905Q307.31873,534.82446,308.98578,534.9264Q309.95087,536.5661,317.38745,521.6588L328.05475,522.80927L333.58472,531.65137L326.7779,544.6653L337.65192,539.25726Q343.8376,533.0937,345.2673,529.04016Q346.6321,525.7446,345.6306,521.1388Q345.23587,519.26556,344.25494,516.64197L340.87164,508.6046L367.805,412.30942Q375.78146,409.0714,378.2096,405.93414Q381.24,402.59534,382.778,394.99405Q383.64,390.98608,384.60736,382.66278Q378.75842,391.7708,373.20447,393.69244Q364.47705,396.8246,361.25052,392.09155Q358.0896,387.54504,358.33792,383.62952Q358.42133,381.50128,360.74435,377.17758L366.12143,369.7703Q364.5074,369.06024,363.44052,369.09567"/> </g> <g style="fill:rgb(255,199,153); fill-opacity:1.0; stroke-linejoin: miter"> <path d="M358.97815,446.72638L339.9271,441.81567L316.94678,449.98526L285.44897,475.38208L279.26382,478.4289L281.65833,518.3507Q286.05292,516.9139,297.79742,515.4086L306.78,515.1115Q314.9972,515.9062,321.07892,516.3778Q334.86053,512.2324,342.34796,510.34286Q349.93494,506.61487,354.23633,504.15833L355.83362,501.50714Q355.0999,499.55115,355.23163,496.61523L357.02002,496.67276L360.55936,495.2202L362.99463,492.0778L363.11182,487.44495L361.61826,483.33698L364.76892,482.7257L367.35132,481.37018L368.3899,475.9048L367.4008,471.95258L363.20032,465.8537L367.90973,465.3327L370.24298,461.1225L371.25128,454.1454L359.0515,446.7705"/> </g> <g style="fill:rgb(0,0,0); fill-opacity:1.0; stroke-linejoin: miter"> <path d="M153.41753,404.8047L227.47119,609.8954L426.72595,607.4314L445.8678,600.0563L448.31815,591.8187L398.14246,566.9785L256.45105,567.5322L250.68472,571.2835L205.7698,445.3137L153.79617,405.0976"/> </g> <g style="fill:rgb(0,0,0); fill-opacity:1.0; stroke-linejoin: miter"> <path d="M153.51569,404.84024L150.45772,406.9911L150.0,416.1592L219.78708,597.6478L227.39024,605.12836L153.54372,404.9162"/> </g> <g style="fill:rgb(91,84,84); fill-opacity:1.0; stroke-linejoin: miter"> <path d="M244.94757,561.89246L204.3192,454.73676L167.69865,427.69302L222.30194,576.7601L244.87111,561.9426"/> </g> <g style="fill:rgb(161,221,230); fill-opacity:1.0; stroke-linejoin: miter"> <path d="M281.8412,475.39227L202.4361,488.13507Q201.9331,488.15424,202.12875,488.30743L224.11302,547.1591L224.24751,547.1389Q227.64258,545.7047,232.3735,544.4438Q232.47461,544.2272,256.89853,538.76025Q263.36993,537.11096,268.52014,535.2056Q280.75385,530.6875,285.833,524.3274Q291.07672,517.7888,290.10992,506.56473Q289.54742,496.9225,281.85153,475.42236"/> </g> <g style="fill:rgb(7,6,0); fill-opacity:0.0627451; stroke-linejoin: miter"> <path d="M338.9542,437.68286L337.42346,442.70572L316.94678,449.98526L285.44897,475.38208L282.3756,476.89606L282.37558,476.89606Q282.1178,476.1663,281.85153,475.42236L281.8412,475.39227L220.03113,485.31143L219.5254,483.89307L219.0558,482.576L201.70633,488.0558L209.61679,508.60083L368.21222,476.83972L368.3899,475.9048L367.4008,471.95258L363.20032,465.8537L367.90973,465.3327L370.24298,461.1225L371.25128,454.1454L359.0515,446.7705L358.97815,446.72638L358.23248,446.53418L358.77734,444.58624L358.77936,444.58624Q350.20465,441.3422,338.95605,437.68286 Z"/> </g> <g style="fill:rgb(7,6,0); fill-opacity:0.09019608; stroke-linejoin: miter"> <path d="M363.5432,369.094Q363.49127,369.094,363.44052,369.09567L363.32904,369.09467Q349.20633,372.38248,344.45654,383.68506Q340.61005,393.21185,349.3069,403.71204L338.9542,437.68286L337.54303,442.3133L351.10168,442.9077L356.05807,426.3094L364.14145,394.4259L364.14355,394.4259Q362.36743,393.72998,361.25052,392.09155Q358.0896,387.54504,358.33792,383.62952Q358.42133,381.50128,360.74435,377.17758L366.12143,369.7703Q364.5841,369.094,363.5432,369.094 Z"/> </g> <g style="fill:rgb(7,6,0); fill-opacity:0.14117648; stroke-linejoin: miter"> <path d="M333.21594,512.28876L323.0316,516.39075Q312.24127,514.9313,308.5719,514.911Q308.16583,514.901,307.7849,514.901Q305.73938,514.901,304.42004,515.1896L306.78,515.1115Q308.6338,515.2908,310.37885,515.4536L310.37732,515.4536L309.42175,515.9905Q307.31873,534.82446,308.98578,534.9264Q309.08142,535.08887,309.2406,535.08887Q310.68777,535.08887,317.38745,521.6588L328.05475,522.80927L329.6915,525.42633Q331.57837,520.37,333.20465,512.3436L333.21594,512.28876 Z"/> </g> <g style="fill:rgb(53,51,37); fill-opacity:1.0; stroke-linejoin: miter"> <path d="M395.23834,571.2516L260.68253,571.6195L244.44278,594.45056L425.88632,591.0996L395.2921,571.28625"/> </g> </g> </svg>